<?xml version="1.0" ?><svg viewBox="0 0 48 48" xmlns="http://www.w3.org/2000/svg"><title/><g id="Vaccine"><path d="M40,20H38V18h1a1,1,0,0,0,1-1V13a1,1,0,0,0-1-1H27a1,1,0,0,0-1,1v4a1,1,0,0,0,1,1h1v2H26a3,3,0,0,0-3,3V45a3,3,0,0,0,3,3H40a3,3,0,0,0,3-3V23A3,3,0,0,0,40,20ZM28,14H38v2H28Zm-2,8h3a1,1,0,0,0,1-1V18h6v3a1,1,0,0,0,1,1h3a1,1,0,0,1,1,1v1H25V23A1,1,0,0,1,26,22ZM41,42H25V26H41Zm-1,4H26a1,1,0,0,1-1-1V44H41v1A1,1,0,0,1,40,46Z"/><path d="M28,37h2v2a1,1,0,0,0,1,1h4a1,1,0,0,0,1-1V37h2a1,1,0,0,0,1-1V32a1,1,0,0,0-1-1H36V29a1,1,0,0,0-1-1H31a1,1,0,0,0-1,1v2H28a1,1,0,0,0-1,1v4A1,1,0,0,0,28,37Zm1-4h2a1,1,0,0,0,1-1V30h2v2a1,1,0,0,0,1,1h2v2H35a1,1,0,0,0-1,1v2H32V36a1,1,0,0,0-1-1H29Z"/><path d="M18,34.18V13a3,3,0,0,0-3-3V7a1,1,0,0,0-1-1H13V1a1,1,0,0,0-2,0V6H10A1,1,0,0,0,9,7v3a3,3,0,0,0-3,3V34.18A3,3,0,0,0,7,40H8v6H7a1,1,0,0,0,0,2H17a1,1,0,0,0,0-2H16V40h1A3,3,0,0,0,18,34.18ZM11,8h2v2H11ZM8,13a1,1,0,0,1,1-1h6a1,1,0,0,1,1,1v1H15a1,1,0,0,0,0,2h1v2H13a1,1,0,0,0,0,2h3v2H15a1,1,0,0,0,0,2h1v2H13a1,1,0,0,0,0,2h3v2H15a1,1,0,0,0,0,2h1v2H8Zm6,33H10V40h4Zm3-8H7a1,1,0,0,1,0-2H17A1,1,0,0,1,17,38Z"/></g></svg>