<?xml version="1.0" ?><svg id="outline" viewBox="0 0 512 512" xmlns="http://www.w3.org/2000/svg"><path d="M475.05566,224a21.05274,21.05274,0,0,0-9.36718,2.21143L454.11133,232h-7.81372a191.80433,191.80433,0,0,0-5.48-26.57648l7.39746-3.06408,12.91186.91742q.73242.052,1.46778.05175a20.94212,20.94212,0,0,0,19.36718-28.95849L473.5,153.94141a20.94465,20.94465,0,0,0-35.17285-5.707l-8.48,9.77838-6.62354,2.74353a191.8448,191.8448,0,0,0-15.41186-22.62616l5.24536-5.24549,12.27978-4.09362a21.04292,21.04292,0,0,0,8.18555-5.05909,20.94225,20.94225,0,0,0,.001-29.61963L417.8877,78.47656a20.94477,20.94477,0,0,0-34.67969,8.187l-4.09326,12.28034-5.52466,5.52453a191.76792,191.76792,0,0,0-22.66773-14.9179l3.064-7.3974,9.77929-8.48126.001-.00049a21.041,21.041,0,0,0,5.626-7.80616,20.94366,20.94366,0,0,0-11.334-27.36572l-20.42871-8.46142a20.94417,20.94417,0,0,0-27.36426,11.333,21.05017,21.05017,0,0,0-1.542,9.502l.918,12.91143L306.898,70.40765A191.7882,191.7882,0,0,0,280,65.30658V57.88824l5.78906-11.57769.001-.00049A20.94556,20.94556,0,0,0,267.05566,16H244.94434a20.94437,20.94437,0,0,0-18.7334,30.31055L232,57.88824V65.702a191.83433,191.83433,0,0,0-26.57715,5.48016l-3.06445-7.39765.918-12.91143a21.04685,21.04685,0,0,0-1.541-9.49951,20.9441,20.9441,0,0,0-27.36523-11.33545l-20.42871,8.46142a20.94391,20.94391,0,0,0-11.335,27.36377,21.04263,21.04263,0,0,0,5.62793,7.8086l9.77929,8.48126,2.74292,6.62243a191.72717,191.72717,0,0,0-22.62671,15.41278l-5.24463-5.24444L128.792,86.66357l-.001-.001a20.94448,20.94448,0,0,0-34.67969-8.18555L78.47754,94.11182a20.94225,20.94225,0,0,0-.001,29.61963,21.05611,21.05611,0,0,0,8.18653,5.05957l12.27978,4.09362,5.52539,5.52564A191.76094,191.76094,0,0,0,89.551,161.07721l-7.3982-3.06445-8.48-9.77838-.00195-.002A20.94416,20.94416,0,0,0,38.5,153.94189l-8.46289,20.42872a20.94272,20.94272,0,0,0,19.36816,28.958c.48926,0,.9795-.01709,1.46778-.05175l12.91186-.91742,6.6228,2.74328A191.82363,191.82363,0,0,0,65.30615,232H57.88867l-11.57715-5.78857A20.94437,20.94437,0,0,0,16,244.94434v22.11132a20.94437,20.94437,0,0,0,30.31152,18.73291L57.88867,280h7.81372a191.80433,191.80433,0,0,0,5.48,26.57648l-7.39746,3.06408-12.91186-.91742a20.94422,20.94422,0,0,0-20.835,28.90674L38.5,358.05859a20.94465,20.94465,0,0,0,35.17285,5.707l8.48-9.77838,6.62354-2.74353a191.8448,191.8448,0,0,0,15.41186,22.62616l-5.24536,5.24549L86.66309,383.209a21.04292,21.04292,0,0,0-8.18555,5.05909,20.94225,20.94225,0,0,0-.001,29.61963L94.1123,433.52344a20.94477,20.94477,0,0,0,34.67969-8.187l4.09326-12.28034,5.52466-5.52453a191.74741,191.74741,0,0,0,22.66773,14.9179l-3.064,7.3974-9.77929,8.48126-.001.00049a21.041,21.041,0,0,0-5.626,7.80616,20.94366,20.94366,0,0,0,11.334,27.36572l20.42871,8.46142a20.94357,20.94357,0,0,0,28.90625-20.835l-.918-12.91143,2.74365-6.62317A191.7882,191.7882,0,0,0,232,446.69342v7.41834l-5.78906,11.57769-.001.00049A20.94556,20.94556,0,0,0,244.94434,496h22.11132a20.94437,20.94437,0,0,0,18.7334-30.31055L280,454.11176V446.298a191.83433,191.83433,0,0,0,26.57715-5.48016l3.06445,7.39765-.918,12.91143a21.04685,21.04685,0,0,0,1.541,9.49951,20.90792,20.90792,0,0,0,27.36523,11.33545l20.42871-8.46142a20.94391,20.94391,0,0,0,11.335-27.36377,21.04263,21.04263,0,0,0-5.62793-7.8086l-9.77929-8.48126-2.74292-6.62243a191.72717,191.72717,0,0,0,22.62671-15.41278l5.24463,5.24444,4.09326,12.28034.001.001a20.95661,20.95661,0,0,0,34.67969,8.18555l15.63379-15.63477a20.94225,20.94225,0,0,0,.001-29.61963,21.05611,21.05611,0,0,0-8.18653-5.05957l-12.27978-4.09362-5.52539-5.52564A191.76094,191.76094,0,0,0,422.449,350.92279l7.3982,3.06445,8.48,9.77838.00195.002a21.0576,21.0576,0,0,0,7.80567,5.62549A20.94465,20.94465,0,0,0,473.5,358.05811l8.46289-20.42872A20.9448,20.9448,0,0,0,461.127,308.72314l-12.91186.91742-6.6228-2.74328A191.82363,191.82363,0,0,0,446.69385,280h7.41748l11.57715,5.78857A20.94437,20.94437,0,0,0,496,267.05566V244.94434A20.968,20.968,0,0,0,475.05566,224Zm-24.64257-65.28125a4.94584,4.94584,0,0,1,8.30566,1.34619l8.46094,20.42774a4.94405,4.94405,0,0,1-4.918,6.82421l-9.86426-.70068-8.46094-20.42871ZM398.38672,91.72412a4.94464,4.94464,0,0,1,8.1875-1.93359L422.21,105.42627a4.94219,4.94219,0,0,1-.001,6.9917,4.96651,4.96651,0,0,1-1.93164,1.19385l-.001.00048-9.38086,3.127-15.63477-15.63477ZM325.04785,47.49561a4.943,4.943,0,0,1,6.459-2.6753l20.42871,8.46143a4.94364,4.94364,0,0,1,2.6748,6.46142,4.98321,4.98321,0,0,1-1.32715,1.8418l-7.4707,6.479-20.42871-8.46191-.70117-9.86426A4.96842,4.96842,0,0,1,325.04785,47.49561ZM244.94434,32h22.11132a4.94377,4.94377,0,0,1,4.42188,7.15576L267.05566,48H244.94434l-4.42188-8.84424A4.94377,4.94377,0,0,1,244.94434,32ZM157.38867,55.95752a4.91419,4.91419,0,0,1,2.67578-2.67578l20.42871-8.46143a4.94594,4.94594,0,0,1,6.82422,4.91748v.00049l-.70117,9.86377L166.1875,68.064l-7.46973-6.47851a4.97714,4.97714,0,0,1-1.3291-1.84424A4.91531,4.91531,0,0,1,157.38867,55.95752ZM89.79,112.41748a4.94219,4.94219,0,0,1,.001-6.9917L105.4248,89.791a4.94436,4.94436,0,0,1,8.1875,1.93212l3.127,9.38135-15.63477,15.63477-9.38183-3.12744A4.97258,4.97258,0,0,1,89.79,112.41748ZM49.73828,187.31689a4.94463,4.94463,0,0,1-4.91894-6.82373l8.46191-20.42773a4.94568,4.94568,0,0,1,8.30566-1.34668l6.47657,7.46875-8.46094,20.42871ZM48,267.05566,39.15527,271.478A4.94417,4.94417,0,0,1,32,267.05566V244.94434a4.94417,4.94417,0,0,1,7.15527-4.42237L48,244.94434Zm13.58691,86.22559a4.94584,4.94584,0,0,1-8.30566-1.34619l-8.46094-20.42774a4.94356,4.94356,0,0,1,4.57129-6.83642c.11524,0,.23145.0039.34668.01221l9.86426.70068,8.46094,20.42871Zm52.02637,66.99463a4.94464,4.94464,0,0,1-8.1875,1.93359L89.79,406.57373a4.94219,4.94219,0,0,1,.001-6.9917,4.96651,4.96651,0,0,1,1.93164-1.19385l.001-.00048,9.38086-3.127,15.63477,15.63477Zm73.33887,44.22851a4.943,4.943,0,0,1-6.459,2.6753l-20.42871-8.46143a4.94364,4.94364,0,0,1-2.6748-6.46142,4.98321,4.98321,0,0,1,1.32715-1.8418l7.4707-6.479,20.42871,8.46191.70117,9.86426A4.96842,4.96842,0,0,1,186.95215,464.50439ZM267.05566,480H244.94434a4.94377,4.94377,0,0,1-4.42188-7.15576L244.94434,464h22.11132l4.42188,8.84424A4.94377,4.94377,0,0,1,267.05566,480Zm87.55567-23.95752a4.91419,4.91419,0,0,1-2.67578,2.67578l-20.42871,8.46143a4.943,4.943,0,0,1-6.46-2.67774,4.96515,4.96515,0,0,1-.36426-2.23974v-.00049l.70117-9.86377L345.8125,443.936l7.46973,6.47851a4.97714,4.97714,0,0,1,1.3291,1.84424A4.91531,4.91531,0,0,1,354.61133,456.04248Zm67.59863-56.46a4.94219,4.94219,0,0,1-.001,6.9917L406.5752,422.209a4.94436,4.94436,0,0,1-8.1875-1.93212l-3.127-9.38135,15.63477-15.63477,9.38183,3.12744A4.97258,4.97258,0,0,1,422.21,399.58252Zm40.05176-74.89941a4.94463,4.94463,0,0,1,4.91894,6.82373l-8.46191,20.42773a4.94568,4.94568,0,0,1-8.30566,1.34668l-6.47657-7.46875,8.46094-20.42871ZM426.6709,300.7168l-13.666-5.66065-6.123,14.78223,29.564,12.24567L430.32324,336.866l-29.56347-12.24585-6.123,14.78222,12.9248,5.3537A175.84239,175.84239,0,0,1,396.114,362.17218L386.1084,352.1665,374.794,363.48l22.62744,22.62738-11.314,11.3136-22.62695-22.627L352.166,386.10742l10.312,10.31189a175.80255,175.80255,0,0,1-17.415,11.88355l-5.66065-13.66663-14.78125,6.123,12.24512,29.56384L322.084,436.44641l-12.24609-29.56409-14.78125,6.12305,5.35376,12.92474A175.79824,175.79824,0,0,1,280,430.15082V416H264v32H248V416H232v14.58258a175.80409,175.80409,0,0,1-20.71729-3.9115l5.66065-13.66571-14.78125-6.12305L189.916,436.44641l-14.78223-6.12329,12.24512-29.56384-14.78125-6.123-5.35352,12.92542a175.71956,175.71956,0,0,1-17.41675-11.44758L159.834,386.10742,148.51953,374.794l-22.627,22.627-11.314-11.3136L137.20605,363.48,125.8916,352.1665l-10.311,10.311a175.80991,175.80991,0,0,1-11.88282-17.41455l13.66553-5.66059-6.12305-14.78222L81.67676,336.866,75.5542,322.08405l29.564-12.24567-6.123-14.78223-12.9253,5.35376A175.86717,175.86717,0,0,1,81.84912,280H96V264H64V248H96V232H81.41748a175.699,175.699,0,0,1,3.91162-20.7168l13.666,5.66065,6.123-14.78223L75.5542,189.916,81.67676,175.134l29.56347,12.24585,6.12305-14.78222-12.9248-5.3537A175.84239,175.84239,0,0,1,115.886,149.82782L125.8916,159.8335,137.20605,148.52l-22.62744-22.62738,11.314-11.3136,22.627,22.627L159.834,125.89258l-10.31176-10.31183A175.76982,175.76982,0,0,1,166.937,103.6972l5.66065,13.66657,14.78125-6.12305L175.13379,81.67688,189.916,75.55359l12.24609,29.56409,14.78125-6.123L211.5896,86.06989A175.79824,175.79824,0,0,1,232,81.84918V96h16V64h16V96h16V81.41742a175.80409,175.80409,0,0,1,20.71729,3.9115l-5.66065,13.66571,14.78125,6.123L322.084,75.55359l14.78223,6.12329-12.24512,29.56384,14.78125,6.12305,5.35352-12.92542a175.71956,175.71956,0,0,1,17.41675,11.44758L352.166,125.89258l11.31445,11.31347,22.62695-22.627,11.314,11.3136L374.794,148.52,386.1084,159.8335l10.311-10.311a175.80991,175.80991,0,0,1,11.88282,17.41455l-13.66553,5.66059,6.123,14.78222L430.32324,175.134,436.4458,189.916l-29.564,12.24567,6.123,14.78223,12.9253-5.35376A175.86717,175.86717,0,0,1,430.15088,232H416v16h32v16H416v16h14.58252A175.699,175.699,0,0,1,426.6709,300.7168ZM480,267.05566a4.94417,4.94417,0,0,1-7.15527,4.42237L464,267.05566V244.94434l8.84473-4.42237A4.94417,4.94417,0,0,1,480,244.94434Z"/><path d="M256,208a48,48,0,1,0,48,48A48.05405,48.05405,0,0,0,256,208Zm0,80a32,32,0,1,1,32-32A32.03635,32.03635,0,0,1,256,288Z"/><path d="M233.47168,160.09473a44.56089,44.56089,0,0,1-3.69531,28.36767l14.35156,7.0752a60.65258,60.65258,0,0,0,6.18164-28.05451,31.58015,31.58015,0,0,0,11.38086,0,60.65258,60.65258,0,0,0,6.18164,28.05451l14.35156-7.0752a44.56089,44.56089,0,0,1-3.69531-28.36767l.35425-1.75672a32,32,0,1,0-45.76514,0ZM256,120a16,16,0,1,1-16,16A16.01833,16.01833,0,0,1,256,120Z"/><path d="M170.78491,203.13812l1.47.97663a44.55607,44.55607,0,0,1,17.44629,22.67187l15.15039-5.14453a60.639,60.639,0,0,0-15.46142-24.205,32.36347,32.36347,0,0,0,4.38525-3.66266,32.01884,32.01884,0,0,0,3.65747-4.38867,60.64366,60.64366,0,0,0,24.20874,15.46533l5.14453-15.15039a44.56209,44.56209,0,0,1-22.6709-17.4458l-.99243-1.49377A31.88839,31.88839,0,0,0,193.77539,148.52l-.001-.00049a32,32,0,1,0-22.9895,54.61859ZM159.834,159.8335a16.00006,16.00006,0,1,1-4.68652,11.314A15.89258,15.89258,0,0,1,159.834,159.8335Z"/><path d="M160.0957,278.52881a44.5443,44.5443,0,0,1,28.36621,3.69482l7.07618-14.35058a60.64229,60.64229,0,0,0-28.05494-6.183,31.58021,31.58021,0,0,0-.00146-11.38818c.4353.0094.87036.0321,1.30542.0321a60.63424,60.63424,0,0,0,26.751-6.207l-7.07618-14.35058a44.55355,44.55355,0,0,1-28.36718,3.69482l-1.75733-.35437a32,32,0,1,0-.00024,45.76654ZM136,272a16,16,0,1,1,16-16A16.01833,16.01833,0,0,1,136,272Z"/><path d="M221.6416,307.14893a60.64448,60.64448,0,0,0-24.209,15.46545,32.04459,32.04459,0,0,0-3.65821-4.38928,32.37465,32.37465,0,0,0-4.38427-3.66211,60.63959,60.63959,0,0,0,15.46142-24.20508l-15.15039-5.14453a44.55607,44.55607,0,0,1-17.44629,22.67187l-1.47.97663a31.78087,31.78087,0,0,0-22.26538,9.36371l.001-.00049a32,32,0,1,0,54.60229,23.01324l.99146-1.49273a44.5667,44.5667,0,0,1,22.67187-17.44629ZM182.46191,352.166a16.00019,16.00019,0,0,1-22.6289-22.62647l.001-.00049a16,16,0,0,1,22.62793,22.627Z"/><path d="M278.52832,351.90527a44.56089,44.56089,0,0,1,3.69531-28.36767l-14.35156-7.0752a60.65258,60.65258,0,0,0-6.18164,28.05451,31.58015,31.58015,0,0,0-11.38086,0,60.65258,60.65258,0,0,0-6.18164-28.05451l-14.35156,7.0752a44.56089,44.56089,0,0,1,3.69531,28.36767l-.35425,1.75672a32,32,0,1,0,45.76514,0ZM256,392a16,16,0,1,1,16-16A16.01833,16.01833,0,0,1,256,392Z"/><path d="M341.21509,308.86188l-1.47-.97663a44.55607,44.55607,0,0,1-17.44629-22.67187l-15.15039,5.14453a60.639,60.639,0,0,0,15.46142,24.205,32.36788,32.36788,0,0,0-4.38525,3.66266,32.01884,32.01884,0,0,0-3.65747,4.38867,60.64366,60.64366,0,0,0-24.20874-15.46533l-5.14453,15.15039a44.56209,44.56209,0,0,1,22.6709,17.4458l.99243,1.49377A31.88839,31.88839,0,0,0,318.22461,363.48l.001.00049a32,32,0,1,0,22.9895-54.61859ZM352.166,352.1665a16.00065,16.00065,0,0,1-22.62793-.00048l.001.00048a16,16,0,1,1,22.627,0Z"/><path d="M376,224a31.88707,31.88707,0,0,0-22.33716,9.11664l-1.75854.35455a44.55884,44.55884,0,0,1-28.36621-3.69482L316.46191,244.127a60.63424,60.63424,0,0,0,26.751,6.207c.43506,0,.87012-.0227,1.30542-.0321a31.58356,31.58356,0,0,0-.00146,11.38879,60.64981,60.64981,0,0,0-28.05494,6.18238l7.07618,14.35058a44.55766,44.55766,0,0,1,28.36718-3.69482l1.75733.35437A31.99093,31.99093,0,1,0,376,224Zm0,48a16,16,0,1,1,16-16A16.01833,16.01833,0,0,1,376,272Z"/><path d="M290.3584,204.85107a60.64448,60.64448,0,0,0,24.209-15.46545,32.04459,32.04459,0,0,0,3.65821,4.38928,32.37465,32.37465,0,0,0,4.38427,3.66211,60.63959,60.63959,0,0,0-15.46142,24.20508l15.15039,5.14453a44.55607,44.55607,0,0,1,17.44629-22.67187l1.47-.97663a31.78087,31.78087,0,0,0,22.26538-9.36371l-.001.00049a32,32,0,1,0-54.60229-23.01324l-.99146,1.49273a44.5667,44.5667,0,0,1-22.67187,17.44629ZM329.53809,159.834a16.00019,16.00019,0,0,1,22.6289,22.62647l-.001.00049a16,16,0,0,1-22.62793-22.627Z"/></svg>