<?xml version="1.0" ?><!DOCTYPE svg  PUBLIC '-//W3C//DTD SVG 1.1//EN'  'http://www.w3.org/Graphics/SVG/1.1/DTD/svg11.dtd'><svg height="176px" style="enable-background:new 0 0 174 176;" version="1.1" viewBox="0 0 174 176" width="174px" xml:space="preserve" xmlns="http://www.w3.org/2000/svg" xmlns:xlink="http://www.w3.org/1999/xlink"><style type="text/css">
<![CDATA[
	.st0{fill:#EF3E42;}
	.st1{fill:#54B948;}
	.st2{fill:#FFC425;}
	.st3{fill:#FFFFFF;}
	.st4{fill:none;}
]]>
</style><defs/><polygon class="st1" points="22.9,18.9 156.8,18.9 156.8,152.8 22.9,152.8 22.9,18.9 "/><path class="st3" d="M73.8,83.8c0.1-0.3,0.1-0.6,0.1-0.9c-2.3,1-4.9,1.6-7.6,1.6s-5.3-0.6-7.6-1.6c0,0.3,0,0.6,0.1,0.9l4.4,16.8  c0.7-1,1.9-1.7,3.2-1.7c1.3,0,2.5,0.7,3.2,1.7L73.8,83.8L73.8,83.8z M66.3,129.7c0.6,0,1.1-0.5,1.1-1.1c0-0.6-0.5-1.1-1.1-1.1  c-0.6,0-1.1,0.5-1.1,1.1C65.1,129.2,65.7,129.7,66.3,129.7L66.3,129.7z M81.1,79.9c10.5,0,17.5,8.8,17.5,17.7v12.5  c0,0.2-0.2,0.4-0.4,0.4h-0.8V136c0,7.6-9.8,7.6-9.8,0v-25.4h-0.8c-0.2,0-0.4-0.2-0.4-0.4V99.7H84v39.7h-0.8v-0.8v-1.3v-38l3.4-0.4  l0.4,10.9h10.7V97.7c0-8.5-6.6-16.9-16.7-16.9l-3.5,0l-0.8,0.6c0.4,1,0.5,2.1,0.2,3.2l-4.4,17c-0.3,1.3-1.4,2.4-2.7,2.9  c-0.4,0.9-1.1,1.6-1.9,1.9v18.2c1.6,0.6,2.7,2.2,2.7,4c0,2.4-1.9,4.3-4.3,4.3c-2.4,0-4.3-1.9-4.3-4.3c0-1.8,1.1-3.4,2.7-4v-18.2  c-0.9-0.4-1.6-1.1-1.9-1.9c-1.3-0.5-2.3-1.6-2.7-2.9l-4.4-17c-0.3-1.1-0.2-2.3,0.2-3.2c-0.3-0.2-0.6-0.4-0.8-0.6h-3.7  c-9.1,0-16.5,7.5-16.5,16.7v12.4h10.8V99.3l3.5-0.4l0.4,38.4v1.3v0.8h-0.8l0-39.7h-2.3v10.5c0,0.2-0.2,0.4-0.4,0.4h-0.8l0,25.4  c0,7.5-9.9,7.5-9.9,0v-25.4h-0.8c-0.2,0-0.4-0.2-0.4-0.4V97.4c0-9.7,7.7-17.5,17.3-17.5l3.9,0c3.2,2.4,7,3.8,11.1,3.8  c4.1,0,7.8-1.4,10.8-3.7L81.1,79.9L81.1,79.9z M131.2,68h-12.7V57.1h-10.8V44.5h10.8V33.7h12.7v10.8H142v12.6h-10.8V68L131.2,68z   M52.7,61.3l-0.4-7.6c0-2.7,2.2-4.8,4.8-4.8h18.2c2.7,0,4.8,2.2,4.8,4.8v7.2L52.7,61.3L52.7,61.3z M53.7,67.4c0-1.8,0.4-3.5,1.1-5.1  h23.1c0.7,1.6,1.1,3.3,1.1,5.1c0,7-5.7,12.6-12.6,12.6C59.3,80,53.7,74.4,53.7,67.4L53.7,67.4z"/><path d="M166.4,9.4v153h-153V9.4H166.4L166.4,9.4z M165.2,10.5H14.6v150.6h150.6V10.5L165.2,10.5z"/><rect class="st4" height="176" id="_x3C_Slice_x3E__48_" width="174"/></svg>