<svg version="1.2" xmlns="http://www.w3.org/2000/svg" viewBox="0 0 24 24" width="24" height="24">
	<title>logo</title>
	<style>
		.s0 { fill: none;stroke: #ffffff;stroke-linecap: round;stroke-width: 1.5 } 
	</style>
	<path fill-rule="evenodd" class="s0" d="m6.6 18l-1.4-2q-0.2-0.3-0.2-0.5v-2.8c0-0.4 0.4-0.7 0.8-0.7 0.4 0 0.8 0.3 0.8 0.7v1.7q0 0.1 0 0.2l0.2 0.2m2.8 3.2v-1.5q0-0.5-0.3-0.9l-0.6-0.9c-0.3-0.4-0.9-0.5-1.3-0.3l-0.6 0.4m1 1.5l-1-1.5m10.8 3.2l1.3-2q0.1-0.3 0.1-0.5v-2.8c0-0.4-0.4-0.7-0.8-0.7-0.4 0-0.8 0.3-0.8 0.7v1.7q0 0.1 0 0.2m-2.9 3.4v-1.7q0-0.5 0.3-0.9l0.7-0.9c0.2-0.4 0.8-0.5 1.2-0.3l0.7 0.4m-1.2 1.7l1.2-1.7m-4.8-8.6c0.4 0 0.7 0.3 0.7 0.6v1.7q0 0.1 0 0.1h1.9c0.3 0 0.6 0.3 0.6 0.6v1.2c0 0.3-0.3 0.6-0.6 0.6h-1.9q0 0 0 0.1v1.7c0 0.3-0.3 0.6-0.7 0.6h-1.2c-0.4 0-0.7-0.3-0.7-0.6v-1.7q0-0.1 0-0.1h-1.9c-0.3 0-0.6-0.3-0.6-0.6v-1.2c0-0.3 0.3-0.6 0.6-0.6h1.9q0 0 0-0.1v-1.7c0-0.3 0.3-0.6 0.7-0.6z"/>
</svg>