<?xml version="1.0" encoding="utf-8"?>
<!-- Generator: Adobe Illustrator 24.0.1, SVG Export Plug-In . SVG Version: 6.00 Build 0)  -->
<svg version="1.1" id="ico" xmlns="http://www.w3.org/2000/svg" xmlns:xlink="http://www.w3.org/1999/xlink" x="0px" y="0px"
	 width="50px" height="50px" viewBox="0 0 50 50" style="enable-background:new 0 0 50 50;" xml:space="preserve">
<path d="M14.861,17.506v2.166v6.218v4.959v6.217v4.469c0,0.359,0.291,0.65,0.65,0.65h18.977c0.359,0,0.65-0.291,0.65-0.65V17.506
	c0-1.398-0.981-2.572-2.291-2.869V12.99h0.962c0.359,0,0.65-0.291,0.65-0.65V8.464c0-0.359-0.291-0.65-0.65-0.65H16.19
	c-0.359,0-0.65,0.291-0.65,0.65v3.876c0,0.359,0.291,0.65,0.65,0.65h0.962v1.647C15.843,14.935,14.861,16.108,14.861,17.506z
	 M23.725,26.54h2.602v3.66h-2.602c-0.359,0-0.65,0.291-0.65,0.65v2.603h-3.659v-2.603c0-0.359-0.291-0.65-0.65-0.65h-2.603v-3.66
	h2.603c0.359,0,0.65-0.291,0.65-0.65v-2.603h3.659v2.603C23.074,26.249,23.365,26.54,23.725,26.54z M16.162,31.499h1.952v2.603
	c0,0.359,0.291,0.65,0.65,0.65h4.96c0.359,0,0.65-0.291,0.65-0.65v-2.603h2.602c0.359,0,0.65-0.291,0.65-0.65V25.89
	c0-0.359-0.291-0.65-0.65-0.65h-2.602v-2.603c0-0.359-0.291-0.65-0.65-0.65h-4.96c-0.359,0-0.65,0.291-0.65,0.65v2.603h-1.952
	v-4.918h13.887v16.095H16.162V31.499z M16.841,9.114h16.318v2.576h-0.962H17.803h-0.962V9.114z M31.547,12.99v2.225
	c0,0.359,0.291,0.65,0.65,0.65c0.905,0,1.641,0.736,1.641,1.641v23.379H16.162v-3.169h14.537c0.359,0,0.65-0.291,0.65-0.65V19.672
	c0-0.359-0.291-0.65-0.65-0.65H16.162v-1.516c0-0.905,0.735-1.641,1.641-1.641c0.359,0,0.65-0.291,0.65-0.65V12.99H31.547z"/>
</svg>
