<?xml version="1.0" encoding="utf-8"?>
<!-- Generator: Adobe Illustrator 24.0.1, SVG Export Plug-In . SVG Version: 6.00 Build 0)  -->
<svg version="1.1" id="ico" xmlns="http://www.w3.org/2000/svg" xmlns:xlink="http://www.w3.org/1999/xlink" x="0px" y="0px"
	 width="50px" height="50px" viewBox="0 0 50 50" style="enable-background:new 0 0 50 50;" xml:space="preserve">
<path d="M37.646,19.43c0.511,0.512,1.345,0.513,1.857,0l1.035-1.035c0.249-0.248,0.385-0.578,0.385-0.929
	c0-0.352-0.137-0.681-0.385-0.929l-7.249-7.249c-0.496-0.497-1.362-0.498-1.857,0l-1.035,1.035c-0.512,0.512-0.512,1.345,0,1.857
	l1.635,1.636l-2.368,2.369l-1.422-1.422c0,0,0,0,0,0l-2.696-2.696c-0.254-0.254-0.665-0.254-0.919,0s-0.254,0.665,0,0.919
	l2.237,2.237L10.729,31.357c-0.254,0.254-0.254,0.665,0,0.919l1.26,1.26l-1.148,1.149c-0.254,0.254-0.254,0.665,0,0.919l1.406,1.406
	l-2.979,2.979c-0.254,0.254-0.254,0.665,0,0.919c0.127,0.127,0.293,0.19,0.459,0.19s0.333-0.063,0.459-0.19l2.979-2.979l1.238,1.238
	c0.127,0.127,0.293,0.19,0.459,0.19s0.333-0.063,0.459-0.19l1.148-1.148l1.427,1.427c0.127,0.127,0.293,0.19,0.459,0.19
	s0.333-0.063,0.459-0.19l16.134-16.134l1.908,1.908c0.127,0.127,0.293,0.19,0.459,0.19s0.333-0.063,0.459-0.19
	c0.254-0.254,0.254-0.665,0-0.919l-2.366-2.367c0,0,0-0.001-0.001-0.001l-1.77-1.77l2.369-2.368L37.646,19.43z M15.552,37.099
	l-0.688,0.688l-2.644-2.644l0.689-0.689L15.552,37.099z M18.358,38.066l-6.25-6.25l1.238-1.238l2.978,2.978
	c0.127,0.127,0.293,0.19,0.459,0.19s0.333-0.063,0.459-0.19c0.254-0.254,0.254-0.665,0-0.919l-2.978-2.978l3.087-3.087l2.978,2.978
	c0.127,0.127,0.293,0.19,0.459,0.19s0.333-0.063,0.459-0.19c0.254-0.254,0.254-0.665,0-0.919l-2.978-2.978l3.087-3.087l2.978,2.978
	c0.127,0.127,0.293,0.19,0.459,0.19s0.333-0.063,0.459-0.19c0.254-0.254,0.254-0.665,0-0.919l-2.978-2.978l3.087-3.087l2.978,2.978
	c0.127,0.127,0.293,0.19,0.459,0.19s0.333-0.063,0.459-0.19c0.254-0.254,0.254-0.665,0-0.919l-2.978-2.978l1.498-1.498l6.25,6.25
	L18.358,38.066z M32.722,19.243l-2.139-2.139l2.828-2.828c0.005-0.005,0.006-0.011,0.01-0.016c0.005-0.005,0.012-0.006,0.017-0.012
	c0.254-0.253,0.254-0.665,0-0.919l-2.105-2.105l1.036-1.017l7.25,7.269l-1.054,1.035l-2.096-2.096c-0.254-0.254-0.665-0.254-0.919,0
	L32.722,19.243z"/>
</svg>
